<?xml version="1.0" encoding="UTF-8" standalone="no"?>
<!-- Created with Inkscape (http://www.inkscape.org/) -->

<svg
   version="1.0"
   width="600"
   height="126"
   id="svg2424"
   sodipodi:docname="bioarchlogo.svg"
   inkscape:version="1.2.1 (9c6d41e410, 2022-07-14)"
   xml:space="preserve"
   inkscape:export-filename="bioarchlogo.png"
   inkscape:export-xdpi="96"
   inkscape:export-ydpi="96"
   xmlns:inkscape="http://www.inkscape.org/namespaces/inkscape"
   xmlns:sodipodi="http://sodipodi.sourceforge.net/DTD/sodipodi-0.dtd"
   xmlns:xlink="http://www.w3.org/1999/xlink"
   xmlns="http://www.w3.org/2000/svg"
   xmlns:svg="http://www.w3.org/2000/svg"
   xmlns:rdf="http://www.w3.org/1999/02/22-rdf-syntax-ns#"
   xmlns:cc="http://creativecommons.org/ns#"
   xmlns:dc="http://purl.org/dc/elements/1.1/"><metadata
     id="metadata114"><rdf:RDF><cc:Work
         rdf:about=""><dc:format>image/svg+xml</dc:format><dc:type
           rdf:resource="http://purl.org/dc/dcmitype/StillImage" /></cc:Work></rdf:RDF></metadata><sodipodi:namedview
     pagecolor="#ffffff"
     bordercolor="#666666"
     borderopacity="1"
     objecttolerance="10"
     gridtolerance="10"
     guidetolerance="10"
     inkscape:pageopacity="0"
     inkscape:pageshadow="2"
     inkscape:window-width="1920"
     inkscape:window-height="1012"
     id="namedview112"
     showgrid="false"
     inkscape:zoom="2.015"
     inkscape:cx="335.98015"
     inkscape:cy="53.846154"
     inkscape:window-x="0"
     inkscape:window-y="0"
     inkscape:window-maximized="1"
     inkscape:current-layer="g2424"
     inkscape:showpageshadow="2"
     inkscape:pagecheckerboard="0"
     inkscape:deskcolor="#d1d1d1" /><defs
     id="defs2426"><linearGradient
       id="linearGradient865"
       inkscape:swatch="solid"><stop
         style="stop-color:#000000;stop-opacity:1;"
         offset="0"
         id="stop863" /></linearGradient><rect
       x="153.20905"
       y="33.346687"
       width="441.45609"
       height="79.411255"
       id="rect444" /><rect
       x="156.87511"
       y="39.067451"
       width="359.5159"
       height="69.252228"
       id="rect438" /><linearGradient
       inkscape:collect="always"
       xlink:href="#linearGradient865"
       id="linearGradient867"
       x1="157.5918"
       y1="69.927919"
       x2="590.13502"
       y2="69.927919"
       gradientUnits="userSpaceOnUse" /></defs><g
     transform="matrix(0.7,0,0,0.7,-37.866513,-100.53407)"
     id="layer1"><g
       transform="matrix(0.8746356,0,0,0.8746356,14.730518,23.408954)"
       id="g2424"><g
         transform="matrix(1.0033516,0,0,1.0033516,-35.47395,-116.45699)"
         id="g2809"
         style="fill:#ffffff;fill-opacity:1" /><g
         style="clip-rule:evenodd;fill-rule:evenodd;image-rendering:optimizeQuality;shape-rendering:geometricPrecision;text-rendering:geometricPrecision"
         id="g328"
         transform="matrix(0.08003333,0,0,0.08003333,71.580263,140.56121)"><g
           id="g288"><path
             style="opacity:1"
             fill="#000000"
             d="m 2197.5,1957.5 c -15.3,-8.15 -30.63,-15.98 -46,-23.5 21.46,17.12 42.62,34.62 63.5,52.5 2.67,4 5.33,8 8,12 60.41,112.49 121.08,224.83 182,337 11.31,33.42 21.81,66.76 31.5,100 -105.69,-59.85 -212.02,-118.68 -319,-176.5 -80.09,-41.71 -161.42,-80.71 -244,-117 -102.84,-45.28 -208.84,-81.61 -318,-109 -30.7,-6.57 -61.36,-13.07 -92,-19.5 9.67,-41.16 16.17,-82.83 19.5,-125 6.26,-89.44 -7.07,-175.77 -40,-259 -15.04,-36.45 -35.38,-69.45 -61,-99 -21.67,-25 -48.17,-42.84 -79.5,-53.5 -37.88,-10.22 -73.21,-4.56 -106,17 -33.66,24.48 -60.49,54.98 -80.5,91.5 -40.84,79.67 -60.34,164.34 -58.5,254 -0.32,28.14 1.51,56.14 5.5,84 3.28,18.66 6.44,37.33 9.5,56 -0.79,21.29 -11.46,34.79 -32,40.5 -88.017,17.23 -174.017,41.56 -258,73 -115.29,43.47 -227.623,93.81 -337,151 -83.801,44.06 -166.801,89.4 -249,136 -29.55,11.52 -59.383,22.02 -89.5,31.5 -0.667,-1.33 -0.667,-2.67 0,-4 4,-14 8,-28 12,-42 5.667,-15 11.333,-30 17,-45 170.206,-304.4 337.873,-610.4 503,-918 80.453,-151.24 159.12,-303.57 236,-457 24.272,-49.545 48.272,-99.211 72,-149 0.414,-0.457 0.914,-0.791 1.5,-1 8.88,4.449 17.88,8.282 27,11.5 -13.601,-14.75 -16.768,-31.583 -9.5,-50.5 33.097,-70.86 65.1,-142.193 96,-214 60.25,-144.928 119.42,-290.261 177.5,-436 17.91,-0.326 35.74,0.008 53.5,1 64.23,153.131 129.56,305.797 196,458 46.6,103.435 94.93,206.102 145,308 50.49,102.472 101.82,204.47 154,306 111.06,213.12 223.39,425.46 337,637 24.19,47.05 48.36,94.05 72.5,141 z"
             id="path286" /></g><g
           id="g292"><path
             style="opacity:1"
             fill="#fefffe"
             d="m 1265.5,142.5 c 41.98,96.648 83.48,193.648 124.5,291 90.17,209.351 187.17,415.684 291,619 139.44,272.89 281.94,543.89 427.5,813 -94.75,-52.21 -195.08,-91.05 -301,-116.5 95.58,48.99 185.24,106.66 269,173 36.56,30.19 73.39,60.03 110.5,89.5 62.59,115.19 124.59,230.53 186,346 -116.98,-68.19 -236.48,-132.36 -358.5,-192.5 -106.28,-52.09 -215.61,-96.76 -328,-134 -58.73,-19.1 -118.4,-34.6 -179,-46.5 21.75,-105.86 18.25,-210.86 -10.5,-315 -16.68,-59.36 -44.34,-112.69 -83,-160 -23.23,-27.03 -51.07,-47.86 -83.5,-62.5 -55.26,-21.12 -107.59,-15.45 -157,17 -37.67,27 -67.5,60.83 -89.5,101.5 -37.66,71.65 -58.66,147.98 -63,229 -4.27,62.72 0.57,124.72 14.5,186 -0.11,0.94 -0.44,1.78 -1,2.5 -100.889,19.96 -199.222,48.63 -295,86 -113.99,44.99 -225.324,95.99 -334,153 -82.717,43.77 -164.551,88.94 -245.5,135.5 94.998,-172.98 190.331,-345.98 286,-519 130.546,-238.41 258.546,-478.41 384,-720 46.238,-90.48 91.404,-181.475 135.5,-273 0.502,-1.021 1.168,-1.188 2,-0.5 66.27,53.835 138.27,99.168 216,136 31.63,15.196 63.63,29.2 96,42 -102.49,-71.38 -196.16,-153.547 -281,-246.5 36.93,-79.861 72.76,-160.194 107.5,-241 54.06,-130.675 107.22,-261.675 159.5,-393 z"
             id="path290" /></g><g
           id="g296"><path
             style="opacity:1"
             fill="#000000"
             d="m 1325.5,1805.5 c 28.2,-2.33 48.03,9.34 59.5,35 6.03,22.04 4.03,43.37 -6,64 -8.48,17.28 -19.64,32.62 -33.5,46 16.37,17.74 30.53,37.07 42.5,58 24.85,47.11 24.52,94.11 -1,141 -10.87,18.88 -24.03,36.04 -39.5,51.5 14.43,15.68 26.27,33.18 35.5,52.5 6.9,16.07 9.23,32.73 7,50 -5.37,24.7 -20.53,39.2 -45.5,43.5 -25.71,2.15 -44.38,-8.19 -56,-31 -12,-0.5 -24,-0.67 -36,-0.5 -3.82,11 -10.82,19.5 -21,25.5 -29.84,14.23 -54.34,8.07 -73.5,-18.5 -7.08,-13.86 -9.42,-28.53 -7,-44 2.27,-17.14 8.27,-32.8 18,-47 7.79,-10.13 15.96,-19.96 24.5,-29.5 -80.54,-82.58 -81.2,-165.75 -2,-249.5 -6.31,-8.14 -12.81,-16.14 -19.5,-24 -14.68,-19.71 -22.85,-41.87 -24.5,-66.5 3.76,-38.76 25.1,-57.1 64,-55 18.7,4.04 32.03,14.7 40,32 11.35,0.83 22.68,0.67 34,-0.5 7.97,-17.63 21.3,-28.63 40,-33 z"
             id="path294" /></g><g
           id="g300"><path
             style="opacity:1"
             fill="#fefffe"
             d="m 1330.5,1842.5 c 9.84,-1 16.68,3 20.5,12 1.08,15.02 -2.26,29.02 -10,42 -4.93,8.2 -10.6,15.87 -17,23 -26.97,27.97 -54.31,55.64 -82,83 -4.33,4.83 -8.49,9.83 -12.5,15 3.67,0.33 7.33,0.67 11,1 23,-0.54 46,-1.21 69,-2 -7.49,-8.29 -14.99,-16.63 -22.5,-25 -4.19,-16.81 2.31,-24.64 19.5,-23.5 4.68,1.68 8.51,4.51 11.5,8.5 13.54,14.87 25.54,30.87 36,48 19.98,34.29 20.65,68.95 2,104 -6.89,11.55 -14.55,22.55 -23,33 -26.01,27.18 -52.51,53.85 -79.5,80 11.31,1 22.65,1.33 34,1 -3.5,-10.36 -0.83,-18.52 8,-24.5 9.53,-2.93 17.37,-0.43 23.5,7.5 13.48,14.48 24.15,30.82 32,49 2.34,8.19 3.01,16.52 2,25 -8.17,13.02 -17.84,14.36 -29,4 -2.41,-8.54 -4.91,-17.04 -7.5,-25.5 -30.67,-0.67 -61.33,-0.67 -92,0 -2.36,7.66 -4.19,15.5 -5.5,23.5 -5.57,9.35 -13.4,11.85 -23.5,7.5 -6.18,-4.36 -8.84,-10.36 -8,-18 0.82,-15.81 5.99,-29.98 15.5,-42.5 6.33,-7.33 12.67,-14.67 19,-22 30.13,-29.29 59.3,-59.29 87.5,-90 -2.27,-0.81 -4.6,-1.31 -7,-1.5 -24,-0.54 -48,-0.37 -72,0.5 -0.15,1.05 0.02,2.05 0.5,3 8.03,6.74 13.53,15.08 16.5,25 -2.24,13.13 -9.91,18.29 -23,15.5 -27.39,-23.26 -45.22,-52.43 -53.5,-87.5 -3,-19.02 -0.66,-37.36 7,-55 2.96,-6.91 6.3,-13.58 10,-20 11.83,-17.17 25.16,-33.17 40,-48 20.14,-19.14 39.97,-38.64 59.5,-58.5 -12,-0.5 -24,-0.67 -36,-0.5 4.88,12.05 1.55,20.88 -10,26.5 -5.23,0.98 -10.23,0.31 -15,-2 -16.81,-15.46 -29.64,-33.62 -38.5,-54.5 -2.28,-8.2 -2.95,-16.53 -2,-25 5.59,-11.19 14.09,-14.03 25.5,-8.5 1.88,1.54 3.38,3.38 4.5,5.5 1.98,5.85 3.31,11.85 4,18 0.79,2.4 1.96,4.57 3.5,6.5 18.92,0.34 37.25,0.51 55,0.5 12.05,-0.52 24.05,-1.35 36,-2.5 2.24,-8.54 4.74,-17.04 7.5,-25.5 2.64,-2.39 5.47,-4.39 8.5,-6 z"
             id="path298" /></g><g
           id="g304"><path
             style="opacity:1"
             fill="#000000"
             d="m 2197.5,1957.5 c 1.33,0.67 1.33,0.67 0,0 z"
             id="path302" /></g><g
           id="g308"><path
             style="opacity:1"
             fill="#000000"
             d="m 1321.5,2050.5 c 3.23,0.91 6.56,1.25 10,1 4.17,13.44 5.01,27.11 2.5,41 -0.64,3.11 -1.81,5.94 -3.5,8.5 -39.67,0.67 -79.33,0.67 -119,0 -1.6,-0.27 -3.1,-0.77 -4.5,-1.5 -5.1,-16.05 -4.6,-31.89 1.5,-47.5 37.84,-0.17 75.5,-0.67 113,-1.5 z"
             id="path306" /></g></g><text
         xml:space="preserve"
         transform="matrix(1.6333333,0,0,1.6333333,45.006744,137.44141)"
         id="text436"
         style="font-style:normal;font-variant:normal;font-weight:bold;font-stretch:normal;font-family:Arial;-inkscape-font-specification:'Arial Bold';white-space:pre;shape-inside:url(#rect438);fill:#000000" /><text
         xml:space="preserve"
         transform="matrix(1.6333333,0,0,1.6333333,25.623296,125.97895)"
         id="text442"
         style="font-style:normal;font-variant:normal;font-weight:bold;font-stretch:normal;font-size:66.6667px;font-family:Arial;-inkscape-font-specification:'Arial Bold';white-space:pre;shape-inside:url(#rect444);fill:#000000;stroke:url(#linearGradient867);stroke-opacity:1;stroke-width:1.99999997;stroke-dasharray:none"><tspan
           x="153.20898"
           y="93.397983"
           id="tspan900"><tspan
             style="fill:#ffffff"
             id="tspan898">BioArchLinux</tspan></tspan></text></g></g></svg>
